<?xml version="1.0" encoding="utf-8"?>
<svg viewBox="0 0 512 90" xmlns="http://www.w3.org/2000/svg">
  <g transform="matrix(0.1, 0, 0, -0.1, 0, 90)" fill="currentColor" stroke="none">
    <path d="M1720 500 l0 -400 400 0 400 0 0 80 0 80 -320 0 -320 0 0 80 0 80 320 0 320 0 0 80 0 80 -320 0 -320 0 0 80 0 80 320 0 320 0 0 80 0 80 -400 0 -400 0 0 -400z"/>
    <path d="M0 400 l0 -300 320 0 320 0 0 300 0 300 -80 0 -80 0 0 -240 0 -240 -40 0 -40 0 0 240 0 240 -80 0 -80 0 0 -240 0 -240 -40 0 -40 0 0 240 0 240 -80 0 -80 0 0 -300z"/>
    <path d="M680 400 l0 -300 240 0 240 0 0 60 0 60 -160 0 -160 0 0 60 0 60 160 0 160 0 0 60 0 60 -160 0 -160 0 0 60 0 60 160 0 160 0 0 60 0 60 -240 0 -240 0 0 -300z"/>
    <path d="M1200 400 l0 -300 240 0 240 0 0 140 c0 133 -1 140 -20 140 -13 0 -20 7 -20 20 0 13 7 20 20 20 19 0 20 7 20 140 l0 140 -240 0 -240 0 0 -300z m320 120 l0 -60 -80 0 -80 0 0 60 0 60 80 0 80 0 0 -60z m0 -240 l0 -60 -80 0 -80 0 0 60 0 60 80 0 80 0 0 -60z"/>
    <path d="M2560 400 l0 -300 160 0 160 0 0 -50 0 -50 80 0 80 0 0 350 0 350 -240 0 -240 0 0 -300z m320 40 l0 -140 -40 0 -40 0 0 -40 0 -40 -40 0 -40 0 0 180 0 180 80 0 80 0 0 -140z"/>
    <path d="M3080 400 l0 -300 240 0 240 0 0 300 0 300 -80 0 -80 0 0 -240 0 -240 -80 0 -80 0 0 240 0 240 -80 0 -80 0 0 -300z"/>
    <path d="M3600 400 l0 -300 80 0 80 0 0 120 0 120 80 0 80 0 0 -120 0 -120 80 0 80 0 0 300 0 300 -240 0 -240 0 0 -300z m320 120 l0 -60 -80 0 -80 0 0 60 0 60 80 0 80 0 0 -60z"/>
    <path d="M4120 640 l0 -60 80 0 80 0 0 -240 0 -240 80 0 80 0 0 240 0 240 80 0 80 0 0 60 0 60 -240 0 -240 0 0 -60z"/>
    <path d="M4640 400 l0 -300 240 0 240 0 0 60 0 60 -160 0 -160 0 0 60 0 60 160 0 160 0 0 60 0 60 -160 0 -160 0 0 60 0 60 160 0 160 0 0 60 0 60 -240 0 -240 0 0 -300z"/>
  </g>
  <rect x="188.005" y="15.926" width="64.057" height="16.088" style="paint-order: stroke; fill: rgb(102, 153, 255);"/>
  <rect x="188.019" y="47.97" width="63.971" height="16.007" style="paint-order: stroke; fill: rgb(102, 153, 255);"/>
</svg>